<svg width="17" height="17" viewBox="0 0 17 17" fill="none" xmlns="http://www.w3.org/2000/svg">
<g clip-path="url(#clip0)">
<path d="M11.35 8.81274C12.1426 10.8182 12.7312 12.8829 13.1137 14.9921C13.6594 14.6594 14.1694 14.2597 14.633 13.7962C15.837 12.5921 16.614 11.0748 16.8885 9.42808C15.7057 8.93877 14.4103 8.66797 13.0527 8.66797C12.4724 8.66797 11.9037 8.71803 11.35 8.81274Z" fill="#E0E0E0"/>
<path d="M14.6402 2.37392C14.6378 2.37171 14.6356 2.36924 14.6334 2.36702C13.1069 0.840634 11.0775 0 8.91889 0C8.0748 0 7.25044 0.12911 6.46826 0.376972C7.722 1.94775 8.82492 3.62409 9.77013 5.39574C11.5508 4.6397 13.191 3.61533 14.6402 2.37392Z" fill="#E0E0E0"/>
<path d="M15.2746 3.08936C13.7544 4.39513 12.0556 5.45329 10.207 6.24411C10.4796 6.79273 10.7369 7.35011 10.9798 7.91576C11.6582 7.78665 12.3504 7.7208 13.0526 7.7208C14.4129 7.7208 15.736 7.96545 16.9914 8.44699C16.9968 8.32565 16.9999 8.20394 16.9999 8.08174C16.9999 6.24781 16.393 4.50747 15.2746 3.08936Z" fill="#E0E0E0"/>
<path d="M3.94446 14.4522C5.35924 15.5616 7.0928 16.1632 8.91884 16.1632C10.0795 16.1632 11.2026 15.9198 12.2304 15.4579C11.8452 13.2256 11.2284 11.0718 10.4054 9.02197C7.54536 9.80255 5.18907 11.8153 3.94446 14.4522Z" fill="#E0E0E0"/>
<path d="M8.76566 8.58681C9.18135 8.41096 9.60506 8.262 10.0354 8.13942C9.80828 7.61928 9.56732 7.10654 9.31379 6.60107C7.13051 7.41174 4.83477 7.8225 2.4765 7.8225C1.92862 7.8225 1.38431 7.79994 0.843943 7.75579C0.839627 7.86418 0.836914 7.97295 0.836914 8.08208C0.836914 10.2407 1.67755 12.2701 3.20393 13.7965C3.20443 13.797 3.20504 13.7975 3.20554 13.7979C3.73345 12.7451 4.42388 11.7882 5.26513 10.9468C6.27643 9.93562 7.45409 9.1416 8.76566 8.58681Z" fill="#E0E0E0"/>
<path d="M8.87094 5.74998C7.91193 3.97388 6.78989 2.29816 5.5253 0.742676C4.67308 1.13741 3.88793 1.68307 3.20403 2.36697C1.98125 3.58976 1.19906 5.1355 0.936157 6.81184C1.44421 6.8534 1.95794 6.87498 2.4766 6.87498C4.72117 6.87498 6.87485 6.47766 8.87094 5.74998Z" fill="#E0E0E0"/>
</g>
<defs>
<clipPath id="clip0">
<rect width="16.1631" height="16.1631" fill="white" transform="translate(0.836914)"/>
</clipPath>
</defs>
</svg>
