<svg width="17" height="17" viewBox="0 0 17 17" fill="none" xmlns="http://www.w3.org/2000/svg">
<g clip-path="url(#clip0)">
<path d="M8.8756 0.336914C4.41055 0.336914 0.794067 3.89279 0.794067 8.27837C0.794067 11.7878 3.10943 14.7638 6.31981 15.813C6.72389 15.8878 6.87205 15.642 6.87205 15.4312C6.87205 15.2426 6.86532 14.7429 6.86195 14.0809C4.61394 14.5597 4.13982 13.0155 4.13982 13.0155C3.77211 12.0989 3.24075 11.8538 3.24075 11.8538C2.5087 11.3615 3.29732 11.3716 3.29732 11.3716C4.10884 11.4268 4.53514 12.1898 4.53514 12.1898C5.25575 13.4041 6.42689 13.0532 6.88889 12.8505C6.96162 12.3366 7.16972 11.9871 7.40072 11.7884C5.60595 11.5898 3.71958 10.9069 3.71958 7.86419C3.71958 6.99744 4.03274 6.28896 4.55131 5.73336C4.46039 5.53267 4.18764 4.72519 4.62202 3.63149C4.62202 3.63149 5.29885 3.41867 6.84444 4.4457C7.49096 4.26925 8.17789 4.1817 8.86482 4.17766C9.55175 4.1817 10.2387 4.26925 10.8852 4.4457C12.4207 3.41867 13.0975 3.63149 13.0975 3.63149C13.5319 4.72519 13.2592 5.53267 13.1783 5.73336C13.6935 6.28896 14.0067 6.99744 14.0067 7.86419C14.0067 10.915 12.1176 11.5864 10.3195 11.7817C10.6024 12.0201 10.865 12.507 10.865 13.2512C10.865 14.3139 10.8549 15.1679 10.8549 15.4258C10.8549 15.6339 10.9963 15.8824 11.4105 15.8029C14.6438 14.7604 16.9571 11.7824 16.9571 8.27837C16.9571 3.89279 13.3386 0.336914 8.8756 0.336914Z" fill="#E0E0E0" />
</g>
<defs>
<clipPath id="clip0">
<rect width="16.1631" height="16.1631" fill="white" transform="translate(0.794067)"/>
</clipPath>
</defs>
</svg>
