<svg width="17" height="17" viewBox="0 0 17 17" fill="none" xmlns="http://www.w3.org/2000/svg">
<g clip-path="url(#clip0)">
<path d="M15.8128 0H1.98112C1.3373 0 0.81543 0.521866 0.81543 1.16569V14.9974C0.81543 15.6412 1.3373 16.1631 1.98112 16.1631H15.8128C16.4566 16.1631 16.9785 15.6412 16.9785 14.9974V1.16569C16.9785 0.521866 16.4566 0 15.8128 0V0ZM6.54856 12.217H4.58034V6.29557H6.54856V12.217ZM5.56451 5.487H5.55169C4.89122 5.487 4.46406 5.03234 4.46406 4.4641C4.46406 3.88305 4.90429 3.44096 5.57758 3.44096C6.25088 3.44096 6.66522 3.88305 6.67804 4.4641C6.67804 5.03234 6.25088 5.487 5.56451 5.487ZM13.6455 12.217H11.6776V9.04918C11.6776 8.25306 11.3926 7.71011 10.6805 7.71011C10.1368 7.71011 9.81294 8.07635 9.67063 8.42989C9.6186 8.55641 9.6059 8.73325 9.6059 8.9102V12.217H7.6378C7.6378 12.217 7.66357 6.8511 7.6378 6.29557H9.6059V7.13398C9.86744 6.7305 10.3354 6.15659 11.3796 6.15659C12.6746 6.15659 13.6455 7.0029 13.6455 8.82166V12.217Z" fill="#E0E0E0"/>
</g>
<defs>
<clipPath id="clip0">
<rect width="16.1631" height="16.1631" fill="white" transform="translate(0.81543)"/>
</clipPath>
</defs>
</svg>
